<svg id="Capa_1" enable-background="new 0 0 512 512" height="512" viewBox="0 0 512 512" width="512" xmlns="http://www.w3.org/2000/svg" xmlns:xlink="http://www.w3.org/1999/xlink"><linearGradient id="SVGID_1_" gradientUnits="userSpaceOnUse" x1="136.079" x2="462.786" y1="482.976" y2="93.622"><stop offset="0" stop-color="#fff3ee" stop-opacity="0"/><stop offset=".2938" stop-color="#ffeade" stop-opacity=".373"/><stop offset=".7874" stop-color="#ffd6bb"/></linearGradient><linearGradient id="SVGID_2_" gradientUnits="userSpaceOnUse" x1="237.21" x2="237.21" y1="470.15" y2="50.9"><stop offset="0" stop-color="#ff4d4d" stop-opacity=".4"/><stop offset=".1463" stop-color="#ff4d4d" stop-opacity=".342"/><stop offset="1" stop-color="#ff4d4d" stop-opacity="0"/></linearGradient><g><g><g><path d="m441.514 371.149c-26.332-88.911-118.23-178.575-54.903-275.384 12.114-18.519 10.795-49.506.723-62.602-63.291-82.292-203.076 2.56-202.087 102.088.651 65.445-47.727 106.413-90.363 148.775-226.824 194.646 421.372 353.548 346.63 87.123z" fill="url(#SVGID_1_)"/></g><g><g><g><g><g><path d="m408.938 70.9v379.25c0 11.05-2.95 20-14 20h-261.84c-11.05 0-20-8.95-20-20v-379.25c0-11.04 8.95-20 20-20h255.84c11.05 0 20 8.96 20 20z" fill="#6c6cff"/><path d="m195.008 192.5v153.48c0 5.53-4.48 10-10 10h-71.91v-173.48h71.91c5.52 0 10 4.47 10 10z" fill="#4d4dff"/></g><path d="m382.938 81.9v357.25c0 2.761-2.239 5-5 5h-233.84c-2.761 0-5-2.239-5-5v-357.25c0-2.761 2.239-5 5-5h233.84c2.761 0 5 2.239 5 5z" fill="#fff"/><path d="m316.108 76.9v33.02c0 2.76-2.24 5-5 5h-100.18c-2.76 0-5-2.24-5-5v-33.02z" fill="#d9d9ff"/><path d="m195.008 192.5v153.48c0 5.53-4.48 10-10 10h-45.91v-173.48h45.91c5.52 0 10 4.47 10 10z" fill="#d9d9ff"/><g><path d="m311.105 90.917h-100.175c-2.761 0-5-2.239-5-5v-39.067c0-2.761 2.239-5 5-5h100.174c2.761 0 5 2.239 5 5v39.067c.001 2.761-2.238 5-4.999 5z" fill="#b3b3ff"/></g><g><circle cx="229.93" cy="66.383" fill="#8383ff" r="5"/><g><circle cx="292.105" cy="66.383" fill="#8383ff" r="5"/></g></g></g><g><path d="m162.486 274.524v147.104h166.805c1.844 0 2.705-2.283 1.322-3.501l-164.805-145.104c-1.292-1.137-3.322-.22-3.322 1.501z" fill="#d9d9ff"/><path d="m195.008 298.73v47.25c0 5.53-4.48 10-10 10h-22.52v-81.46c0-1.72 2.03-2.63 3.32-1.5z" fill="#b3b3ff"/><path d="m359.548 310.9v38.18l-35.95 38.1-74.81 34.45h-86.3l51.53-62.64c.8-.97 2.29-.97 3.09 0l25.9 31.48 55.81-67.82c.8-.97 2.29-.97 3.09 0l21.69 26.35 32.41-39.37c1.19-1.45 3.54-.61 3.54 1.27z" fill="#ffab66"/><path d="m217.108 397.17 20.12 24.46h-43.33l20.12-24.46c.8-.97 2.29-.97 3.09 0z" fill="#ffc599"/><path d="m359.548 349.08v70.55c0 1.1-.89 2-2 2h-108.76l50.03-60.8c.8-.97 2.29-.97 3.09 0l21.69 26.35 32.41-39.37c1.19-1.45 3.54-.61 3.54 1.27z" fill="#ffc599"/><path d="m359.548 416.628h-192.062v-23.256h3.911c2.761 0 5-2.239 5-5s-2.239-5-5-5h-3.911v-17.375h3.911c2.761 0 5-2.239 5-5s-2.239-5-5-5h-3.911v-85.899c0-2.761-2.238-5-5-5s-5 2.239-5 5v151.53c0 2.761 2.238 5 5 5h197.062c2.762 0 5-2.239 5-5s-2.238-5-5-5z" fill="#8383ff"/><path d="m167.488 270.1v85.88h-10v-85.88c0-2.76 2.24-5 5-5s5 2.24 5 5z" fill="#6c6cff"/></g><g><g><path d="m185.006 331.984h-109.524c-5.523 0-10-4.477-10-10v-153.486c0-5.523 4.477-10 10-10h109.524c5.523 0 10 4.477 10 10v153.486c0 5.523-4.477 10-10 10z" fill="#ffe8dc"/></g><g><g><path d="m119.535 198.992h-18.583c-2.761 0-5-2.239-5-5s2.239-5 5-5h18.583c2.761 0 5 2.239 5 5s-2.238 5-5 5z" fill="#ff6c6c"/></g><g><path d="m159.535 219.373h-58.583c-2.761 0-5-2.239-5-5s2.239-5 5-5h58.583c2.761 0 5 2.239 5 5s-2.238 5-5 5z" fill="#ffab66"/></g><g><path d="m159.535 239.755h-58.583c-2.761 0-5-2.239-5-5s2.239-5 5-5h58.583c2.761 0 5 2.239 5 5s-2.238 5-5 5z" fill="#ffab66"/></g><g><path d="m159.535 280.924h-40.583c-2.761 0-5-2.239-5-5s2.239-5 5-5h40.583c2.761 0 5 2.239 5 5s-2.238 5-5 5z" fill="#ffab66"/><g fill="#ff6c6c"><circle cx="100.952" cy="275.924" r="5"/><circle cx="100.952" cy="296.306" r="5"/></g></g><g><path d="m159.535 301.306h-40.583c-2.761 0-5-2.239-5-5s2.239-5 5-5h40.583c2.761 0 5 2.239 5 5s-2.238 5-5 5z" fill="#ffab66"/></g></g></g></g><g><g><path d="m335.433 135.265h18.583c2.761 0 5-2.239 5-5s-2.239-5-5-5h-18.583c-2.761 0-5 2.239-5 5s2.239 5 5 5z" fill="#ff6c6c"/></g><g><g><path d="m285.433 155.646h68.583c2.761 0 5-2.239 5-5s-2.239-5-5-5h-68.583c-2.761 0-5 2.239-5 5s2.239 5 5 5z" fill="#ffab66"/></g><g><path d="m285.433 176.028h68.583c2.761 0 5-2.239 5-5s-2.239-5-5-5h-68.583c-2.761 0-5 2.239-5 5s2.239 5 5 5z" fill="#ffab66"/></g></g><g><path d="m229.61 205.198h124.406c2.761 0 5-2.239 5-5s-2.239-5-5-5h-124.406c-2.761 0-5 2.239-5 5s2.239 5 5 5z" fill="#9494ff"/></g><g><path d="m229.61 225.579h124.406c2.761 0 5-2.239 5-5s-2.239-5-5-5h-124.406c-2.761 0-5 2.239-5 5s2.239 5 5 5z" fill="#9494ff"/></g></g><g><path d="m312.724 281.203h41.292c2.761 0 5-2.239 5-5v-22.119c0-2.761-2.239-5-5-5h-41.292c-2.761 0-5 2.239-5 5v22.119c0 2.761 2.239 5 5 5z" fill="#9494ff"/><path d="m262.813 281.203h27.292c2.761 0 5-2.239 5-5v-22.119c0-2.761-2.239-5-5-5h-27.292c-2.761 0-5 2.239-5 5v22.119c0 2.761 2.239 5 5 5z" fill="#ff6c6c"/></g></g><g><path d="m55.213 393.664c-2.762 0-5-2.239-5-5 0-3.492-2.842-6.333-6.334-6.333-2.762 0-5-2.239-5-5s2.238-5 5-5c3.492 0 6.334-2.841 6.334-6.333 0-2.761 2.238-5 5-5s5 2.239 5 5c0 3.492 2.841 6.333 6.333 6.333 2.762 0 5 2.239 5 5s-2.238 5-5 5c-3.492 0-6.333 2.841-6.333 6.333 0 2.761-2.238 5-5 5z" fill="#ffab66"/></g><g><path d="m456.788 75.717c-2.762 0-5-2.239-5-5 0-3.492-2.841-6.333-6.333-6.333-2.762 0-5-2.239-5-5s2.238-5 5-5c3.492 0 6.333-2.841 6.333-6.333 0-2.761 2.238-5 5-5s5 2.239 5 5c0 3.492 2.841 6.333 6.333 6.333 2.762 0 5 2.239 5 5s-2.238 5-5 5c-3.492 0-6.333 2.841-6.333 6.333 0 2.761-2.238 5-5 5z" fill="#ff6c6c"/></g><g><path d="m79.562 443.374c-2.762 0-5-2.239-5-5 0-3.492-2.841-6.333-6.333-6.333-2.762 0-5-2.239-5-5s2.238-5 5-5c3.492 0 6.333-2.841 6.333-6.333 0-2.761 2.238-5 5-5s5 2.239 5 5c0 3.492 2.842 6.333 6.334 6.333 2.762 0 5 2.239 5 5s-2.238 5-5 5c-3.492 0-6.334 2.841-6.334 6.333 0 2.761-2.239 5-5 5z" fill="#8383ff"/></g><g><path d="m448.106 124.42c-1.279 0-2.56-.488-3.535-1.464l-5.465-5.464-5.465 5.464c-1.951 1.952-5.119 1.952-7.07 0-1.953-1.953-1.953-5.119 0-7.071l9-9c1.951-1.952 5.119-1.952 7.07 0l9 9c1.953 1.953 1.953 5.119 0 7.071-.975.976-2.255 1.464-3.535 1.464z" fill="#8383ff"/></g><g><path d="m79.562 128.92c-1.279 0-2.56-.488-3.535-1.464l-5.465-5.464-5.465 5.464c-1.951 1.952-5.119 1.952-7.07 0-1.953-1.953-1.953-5.119 0-7.071l9-9c1.951-1.952 5.119-1.952 7.07 0l9 9c1.953 1.953 1.953 5.119 0 7.071-.976.976-2.256 1.464-3.535 1.464z" fill="#8383ff"/></g></g></g><path d="m388.938 50.9h-255.84c-11.05 0-20 8.96-20 20v87.598h-37.616c-5.523 0-10 4.477-10 10v153.486c0 5.523 4.477 10 10 10h37.616v118.166c0 11.05 8.95 20 20 20h261.84c11.05 0 14-8.95 14-20v-379.25c0-11.04-8.95-20-20-20z" fill="url(#SVGID_2_)"/></g></svg>